<svg id="Layer_1" data-name="Layer 1" xmlns="http://www.w3.org/2000/svg" xmlns:xlink="http://www.w3.org/1999/xlink" viewBox="0 0 100 100"><defs><style>.cls-1{fill:url(#linear-gradient);}.cls-2{fill:url(#linear-gradient-2);}.cls-3{fill:url(#linear-gradient-3);}.cls-4{fill:url(#linear-gradient-4);}.cls-5{fill:url(#linear-gradient-5);}.cls-6{fill:url(#linear-gradient-6);}.cls-7{fill:url(#linear-gradient-7);}.cls-8{fill:url(#linear-gradient-8);}.cls-9{fill:url(#linear-gradient-9);}.cls-10{fill:url(#linear-gradient-10);}.cls-11{fill:url(#linear-gradient-11);}</style><linearGradient id="linear-gradient" x1="23.91" y1="-8.59" x2="97.14" y2="64.64" gradientUnits="userSpaceOnUse"><stop offset="0" stop-color="#efc501"/><stop offset="0.14" stop-color="#ebc201"/><stop offset="0.27" stop-color="#e0b902"/><stop offset="0.4" stop-color="#cdaa04"/><stop offset="0.5" stop-color="#b79906"/><stop offset="0.61" stop-color="#cdab04"/><stop offset="0.73" stop-color="#e0b902"/><stop offset="0.86" stop-color="#ebc201"/><stop offset="1" stop-color="#efc501"/></linearGradient><linearGradient id="linear-gradient-2" x1="32.89" y1="-17.57" x2="106.12" y2="55.66" xlink:href="#linear-gradient"/><linearGradient id="linear-gradient-3" x1="15.21" y1="0.11" x2="88.44" y2="73.34" xlink:href="#linear-gradient"/><linearGradient id="linear-gradient-4" x1="16.85" y1="-1.53" x2="90.08" y2="71.7" xlink:href="#linear-gradient"/><linearGradient id="linear-gradient-5" x1="34.46" y1="-19.14" x2="107.69" y2="54.09" xlink:href="#linear-gradient"/><linearGradient id="linear-gradient-6" x1="-0.77" y1="16.1" x2="72.46" y2="89.33" xlink:href="#linear-gradient"/><linearGradient id="linear-gradient-7" x1="-2.05" y1="17.38" x2="71.18" y2="90.61" xlink:href="#linear-gradient"/><linearGradient id="linear-gradient-8" x1="0.25" y1="15.07" x2="73.48" y2="88.3" xlink:href="#linear-gradient"/><linearGradient id="linear-gradient-9" x1="-4.37" y1="19.69" x2="68.86" y2="92.92" xlink:href="#linear-gradient"/><linearGradient id="linear-gradient-10" x1="-5.23" y1="20.55" x2="68" y2="93.78" xlink:href="#linear-gradient"/><linearGradient id="linear-gradient-11" x1="5.23" y1="10.09" x2="78.46" y2="83.32" xlink:href="#linear-gradient"/></defs><g id="Group_6" data-name="Group 6"><path id="Path_11" data-name="Path 11" class="cls-1" d="M99,35.32a.19.19,0,0,1-.1.16l-8,8-7.74,7.66L77.3,56.89l-.14.14A.12.12,0,0,1,77,57l-.23-.17c-1.58-1.31-3.16-2.63-4.71-4h0c-.21-.17-.21-.17-.39,0l-1.7,1.65-7,6.73-.15.14a.84.84,0,0,1-.14-.37q-3.21-10.32-6.41-20.69c-.09-.32-.09-.32-.39-.23q-2.4.82-4.79,1.57c-.46.14-.46.23-.46-.33V35.91c0-.49,0-.42.41-.42H98.23A2.52,2.52,0,0,1,99,35.32Z"/><path id="Path_12" data-name="Path 12" class="cls-2" d="M53.62,17,81.33,17c0,.14-.09.18-.15.24l-6.11,6L68.2,30c-.15.14-.29.27-.43.42s-.18.12-.29,0-.49-.47-.73-.7L53.85,17.3A.67.67,0,0,1,53.62,17Z"/><path id="Path_13" data-name="Path 13" class="cls-3" d="M18.55,17.2l27.5-.09c0,.16-.14.23-.23.31q-1.7,1.75-3.54,3.58L32.6,30.43c-.21.2-.17.26-.46,0l-13.44-13C18.67,17.37,18.58,17.33,18.55,17.2Z"/><path id="Path_14" data-name="Path 14" class="cls-4" d="M49.93,18.26,63.68,31.54c-.07.12-.17.08-.25.08H36.23l.08-.09Z"/><path id="Path_15" data-name="Path 15" class="cls-5" d="M98.82,31.48c-9.17.08-18.33,0-27.44.11,0-.14.08-.17.14-.23L84.73,18.43c.32-.31.32-.31.65,0Q92,24.82,98.62,31.21a.62.62,0,0,1,.21.27Z"/><path id="Path_16" data-name="Path 16" class="cls-6" d="M28.53,31.69c-9.16,0-18.24.13-27.39.1a1.13,1.13,0,0,1,.24-.29L12.06,21c.84-.8,1.67-1.6,2.5-2.42.28-.28.23-.24.48,0,1.92,1.87,3.83,3.73,5.73,5.6l7.46,7.2A.69.69,0,0,1,28.53,31.69Z"/><path id="Path_17" data-name="Path 17" class="cls-7" d="M42.8,76.12a.56.56,0,0,1-.25-.23q-4.35-4.5-8.72-9.08l-1-1a1.68,1.68,0,0,1-.24-.29.51.51,0,0,1,0-.58l.09-.16,9.83-16.26a.36.36,0,0,1,.19-.26c.1-.06,0,.16.07.23V75.73A.59.59,0,0,1,42.8,76.12Z"/><path id="Path_18" data-name="Path 18" class="cls-8" d="M50.84,83.05a.69.69,0,0,1,0-.35V48.6a1.93,1.93,0,0,1,0-.34,1.61,1.61,0,0,1,.31.66c.31,1.14.62,2.21.94,3.31l6.12,20.91c.11.42.26.84.36,1.28a1.55,1.55,0,0,1-.46,1.51q-3.28,3.28-6.46,6.67a.9.9,0,0,1-.18.16A3,3,0,0,0,50.84,83.05Z"/><path id="Path_19" data-name="Path 19" class="cls-9" d="M22.13,35.59a.56.56,0,0,1-.21.27c-3.43,3.24-6.75,6.5-10.11,9.77-.29.27-.23.28-.53,0L1.31,36a2.55,2.55,0,0,1-.26-.3C8.07,35.67,15.09,35.58,22.13,35.59Z"/><path id="Path_20" data-name="Path 20" class="cls-10" d="M16.77,51q4.31-4.12,8.58-8.26c0,5.5.12,11,.08,16.54Z"/><path id="Path_21" data-name="Path 21" class="cls-11" d="M41.22,35.66a.45.45,0,0,1-.12.29q-3.75,6.22-7.52,12.46c0,.09-.08.26-.2.23s-.09-.21-.09-.32V35.89c0-.31,0-.31.31-.31h7.3A1.16,1.16,0,0,1,41.22,35.66Z"/></g></svg>